# xmcd
#
# Track frame offsets: 
#        150
#        23438
#        43426
#        60264
#        78039
#        99332
#        122620
#        142083
#        165447
#        190244
#        209144
#
# Disc length: 3017 seconds
#
# Revision: 0
# Processed by: cddbd v1.5.2PL0 Copyright (c) Steve Scherf et al.
# Submitted via: ExactAudioCopyFreeDBPlugin 1.0
#
DISCID=8d0bc70b
DTITLE=Band of Drifters - Rialto
DYEAR=2019
DGENRE=Country
TTITLE0=Just Surviving
TTITLE1=Before the Sun Goes Down
TTITLE2=Saginaw, Michigan
TTITLE3=Walking Shoes
TTITLE4=Sioux City
TTITLE5=Jole Blon
TTITLE6=Back to the Bottom
TTITLE7=Slow Riding Blues
TTITLE8=Sweet Celeny
TTITLE9=There Won't Be Anymore
TTITLE10=Poor Children
EXTD=
EXTT0=
EXTT1=
EXTT2=
EXTT3=
EXTT4=
EXTT5=
EXTT6=
EXTT7=
EXTT8=
EXTT9=
EXTT10=
PLAYORDER=
